<svg
    width="26"
    height="25"
    viewBox="0 0 26 25"
    fill="none"
    xmlns="http://www.w3.org/2000/svg"
>
    <rect
        width="26"
        height="24.2069"
        fill="white"
    />
    <path
        d="M5.16394 4.62129C5.2198 4.61514 5.27591 4.61562 5.33228 4.61538C10.402 4.61609 15.472 4.61444 20.542 4.61609C20.7477 4.59789 20.9262 4.77637 20.9219 4.96288C20.9219 5.2475 20.9229 5.53212 20.9214 5.81674C20.9214 6.0113 20.7287 6.18434 20.5169 6.16188C15.421 6.1633 10.3248 6.16235 5.22894 6.16235C5.00779 6.17394 4.80898 5.97111 4.8298 5.76804C4.83209 5.50777 4.82929 5.24727 4.83132 4.98699C4.83209 4.81395 4.97656 4.64422 5.16394 4.62129V4.62129ZM6.13539 8.10836C6.12117 7.91381 6.30728 7.70909 6.52564 7.73391C10.7319 7.73438 14.9381 7.73344 19.1443 7.73438C19.3644 7.71051 19.5419 7.9131 19.5297 8.10812C19.5333 10.1253 19.5317 12.1432 19.5305 14.1606C19.5434 14.3795 19.3251 14.5669 19.0948 14.5582C18.7385 14.5596 18.3826 14.557 18.0266 14.5586C17.9761 14.5627 17.8991 14.5575 17.8844 14.6163C17.5231 15.7326 17.1653 16.8503 16.8055 17.9668C16.7842 18.028 16.8294 18.1183 16.9094 18.1025C18.12 18.1048 19.3306 18.1022 20.541 18.1039C20.7368 18.0935 20.9231 18.2542 20.9209 18.4374C20.9226 18.7062 20.9216 18.9755 20.9216 19.2445C20.9226 19.4272 20.7401 19.5903 20.542 19.5726C15.4383 19.5742 10.3345 19.5724 5.23046 19.5735C5.12586 19.5719 5.01947 19.5794 4.91638 19.5586C4.76988 19.5059 4.64724 19.3712 4.65181 19.2199C4.65054 18.9669 4.65181 18.7142 4.6513 18.4613C4.63759 18.2722 4.82752 18.1027 5.02709 18.1048C6.18718 18.1001 7.34754 18.1069 8.50763 18.1013C8.58482 18.1081 8.60691 18.0202 8.5866 17.9656C8.33625 17.1427 8.08234 16.3205 7.83377 15.4969C7.80431 15.4144 7.8782 15.3269 7.97138 15.3331C8.55562 15.331 9.14011 15.3328 9.72461 15.3321C9.8965 15.3326 10.0841 15.3967 10.1646 15.5475C10.5104 16.3675 10.8578 17.1871 11.2051 18.0065C11.2282 18.0738 11.2978 18.114 11.3732 18.1029C12.2827 18.0994 13.193 18.1124 14.1025 18.0961C14.185 18.0256 14.2094 17.9211 14.2464 17.8273C14.6545 16.7619 15.0726 15.7 15.4738 14.6324C15.4609 14.609 15.4484 14.5856 15.4365 14.5624C12.4655 14.5523 9.49406 14.5627 6.5231 14.5572C6.31058 14.5442 6.12091 14.362 6.13513 14.1598C6.13564 12.1427 6.13539 10.1255 6.13539 8.10836V8.10836ZM8.74021 9.38253C8.73615 10.5179 8.73945 11.6536 8.73818 12.789C8.74123 12.8592 8.72498 12.9424 8.79049 12.9935C9.23711 13.0055 9.68398 12.9956 10.1309 12.9989C12.3703 12.9935 14.6108 13.0093 16.8497 12.9909C16.8858 12.9552 16.9221 12.9136 16.9185 12.8613C16.9201 11.702 16.9185 10.5425 16.919 9.38324C16.9229 9.3057 16.8276 9.27237 16.7583 9.27899C14.1256 9.27899 11.4928 9.27923 8.86006 9.27875C8.79404 9.27119 8.72599 9.31587 8.74021 9.38253V9.38253Z"
        fill="#299E00"
    />
</svg>