<svg width="388" height="99" viewBox="0 0 388 99" fill="none" xmlns="http://www.w3.org/2000/svg">
<path d="M95.5544 84.3739H1.74436C-0.0696406 84.3739 0.000359337 85.5779 0.000359337 89.0709C0.000359337 92.5629 -0.0696406 93.8759 1.74436 93.8759H95.5544C97.3684 93.8759 97.2994 92.5629 97.2994 89.0709C97.2994 85.5779 97.3684 84.3739 95.5544 84.3739Z" fill="#A3A9AD"/>
<path d="M0.556335 13.9281C0.556335 13.9281 3.11934 4.07407 6.80534 4.07407H93.1193C95.0393 4.07407 94.8593 5.99107 94.8593 9.14907C94.8593 12.3061 95.0393 13.9281 93.1193 13.9281H0.556335Z" fill="#A3A9AD"/>
<path d="M75.8791 50.8983C75.8791 53.1543 74.9161 53.8043 72.5641 53.8043H24.7321C22.3911 53.8043 21.4231 53.1543 21.4231 50.8983V35.4773C21.4231 33.1063 22.3911 32.5713 24.7321 32.5713H72.5641C74.9161 32.5713 75.8791 33.1063 75.8791 35.4773V50.8983ZM77.0201 22.9363H20.2821C14.0791 22.9363 11.0831 25.6223 11.0831 31.9763V54.6193C11.0831 60.9723 14.0791 63.4473 20.2821 63.4473H77.0201C83.2251 63.4473 86.2161 60.9723 86.2161 54.6193V31.9763C86.2161 25.6223 83.2251 22.9363 77.0201 22.9363Z" fill="#A3A9AD"/>
<path d="M118.456 96.7645C117.601 98.1095 115.776 97.8575 112.944 96.3425C110.113 94.8275 109.449 93.9325 110.226 92.1495C116.464 77.8115 115.878 48.9295 115.878 48.9295H102.706C102.706 48.9295 104.855 39.9235 107.457 39.9235H133.144C134.942 39.9235 135.097 41.2225 135.097 43.3735V48.9295H125.109C125.109 48.9295 125.602 85.5295 118.456 96.7645Z" fill="#A3A9AD"/>
<path d="M156.847 92.9862L145.838 95.8822C145.838 95.8822 145.701 87.8822 147.876 87.3102C150.053 86.7372 152.924 85.9822 152.924 85.9822L157.959 84.6582L162.74 83.4002C164.242 83.0062 164.649 84.0572 165.111 85.8552C165.573 87.6532 166.304 90.4992 166.304 90.4992L157.955 92.6942L156.847 92.9862Z" fill="#A3A9AD"/>
<path d="M104.393 75.786C104.393 75.786 104.147 66.525 106.659 65.839C109.173 65.151 120.121 62.159 120.121 62.159L124.029 61.091L129.55 59.582C131.286 59.107 131.769 60.321 132.324 62.397C132.877 64.473 133.755 67.761 133.755 67.761L104.393 75.786Z" fill="#A3A9AD"/>
<path d="M109.398 11.2225H116.711V1.85447C116.711 -0.079533 118.149 0.000467066 121.351 0.000467066C124.552 0.000467066 125.877 -0.079533 125.877 1.85447V11.2225H133.898C135.696 11.2225 135.516 12.5145 135.516 14.6645V20.3245H103.66C103.66 20.3245 106.618 11.2225 109.398 11.2225Z" fill="#A3A9AD"/>
<path d="M150.707 88.3895V14.8545C146.66 15.9935 145.732 16.8475 145.732 19.6475C145.732 48.5935 146.002 67.9775 144.273 78.6775C142.832 87.6355 142.25 90.0125 139.097 96.8425C138.217 98.7485 137.356 98.5585 134.767 96.9815C132.181 95.4055 130.309 94.3365 130.734 93.4195C133.438 87.5645 134.758 85.1825 135.958 76.8455C137.554 65.7445 137.418 45.0495 137.418 15.7795C137.418 10.2845 140.4 8.05045 144.851 6.96745C144.851 6.96745 170.174 1.01446 171.209 0.764455C172.929 0.348455 173.818 1.03046 174.158 2.65546C174.497 4.28046 175.448 9.04146 175.448 9.04146L171.762 9.90146C171.762 9.90146 171.499 58.5395 173.336 71.5315C174.481 79.6245 178.331 90.6225 178.902 92.9935C179.322 94.7335 177.691 95.4955 175.804 96.0895C173.929 96.6785 171.437 97.0865 170.959 95.6655C169.031 89.9375 166.245 81.2075 165.055 72.2425C163.19 58.1875 163.445 11.8695 163.445 11.8695L158.814 12.9595V86.8905L150.707 88.3895Z" fill="#A3A9AD"/>
<path d="M195.693 11.2225H203.747C205.644 11.2225 205.547 12.6275 205.547 14.7795V20.3245H174.958V14.7795C174.958 12.5145 174.776 11.2225 176.569 11.2225H195.693Z" fill="#A3A9AD"/>
<path d="M185.567 11.4413V1.71728C185.567 -0.109718 187.341 0.00228197 190.255 0.00228197C193.167 0.00228197 194.933 -0.109718 194.933 1.71728V11.4413H185.567Z" fill="#A3A9AD"/>
<path d="M195.259 62.0897H202.512C204.414 62.0897 204.341 64.4867 204.341 66.7527V71.2977H176.166V66.7527C176.166 64.4867 175.988 62.0897 177.791 62.0897H195.259Z" fill="#A3A9AD"/>
<path d="M194.883 95.5702C194.883 97.3942 191.424 97.2092 189.318 97.2092C187.198 97.2092 185.619 97.3942 185.619 95.5702V49.8442H194.883V95.5702Z" fill="#A3A9AD"/>
<path d="M185.978 49.8446H174.487V44.4036C174.487 42.1406 174.199 40.8496 175.991 40.8496H204.299C206.099 40.8496 206.031 42.1406 206.031 44.4036V49.8446H185.978Z" fill="#A3A9AD"/>
<path d="M118.685 40.0131L117.31 15.7261L112.801 16.1461C109.359 16.4951 109.207 18.0841 109.363 20.6441L110.658 44.5361L115.307 44.1151C118.041 43.7561 118.799 42.8381 118.685 40.0131Z" fill="#A3A9AD"/>
<path d="M123.167 40.0131L124.542 15.7261L129.051 16.1461C132.493 16.4951 132.645 18.0841 132.489 20.6441L131.194 44.5361L126.545 44.1151C123.811 43.7561 123.053 42.8381 123.167 40.0131Z" fill="#A3A9AD"/>
<path d="M188.011 40.0131L186.635 15.7261L182.126 16.1461C178.684 16.4951 178.532 18.0841 178.689 20.6441L179.983 44.5361L184.632 44.1151C187.366 43.7561 188.125 42.8381 188.011 40.0131Z" fill="#A3A9AD"/>
<path d="M192.493 40.0131L193.868 15.7261L198.377 16.1461C201.818 16.4951 201.97 18.0841 201.813 20.6441L200.519 44.5361L195.87 44.1151C193.136 43.7561 192.378 42.8381 192.493 40.0131Z" fill="#A3A9AD"/>
<path d="M334.21 80.9618L310.366 16.7358V96.4528H298.165V3.42377H319.139L342.864 66.7268L366.562 3.42377H379.238C383.863 3.42377 387.376 5.42077 387.376 11.1488V96.4528H375.18V16.7358L351.424 80.9748L334.21 80.9618Z" fill="#9DD6C5"/>
<path d="M235.408 15.62V44.946H282.376V56.975H235.408V96.422H223.364V19.475C223.364 9.62597 227.917 3.59097 238.858 3.59097H286.637V15.62H235.408Z" fill="#9DD6C5"/>
<path d="M37.1926 87.4608L29.5816 57.4548C29.3286 56.5648 28.8576 54.9058 26.5546 54.8658C25.7776 54.8528 24.7676 55.0178 23.2826 55.3998C19.4096 56.3988 18.4866 57.5598 19.1706 60.5898L26.7056 89.8158C27.1066 91.4718 28.0666 92.3228 29.5566 92.3488C30.3136 92.3618 31.1176 92.1628 32.2346 91.8878L32.6796 91.7768C35.2056 91.1618 37.8176 90.5258 37.1926 87.4608Z" fill="#A3A9AD"/>
<path d="M60.0593 87.4608L67.6703 57.4558C67.9233 56.5648 68.3943 54.9058 70.6973 54.8658C71.4743 54.8528 72.4843 55.0178 73.9693 55.3998C77.8423 56.3988 78.7653 57.5598 78.0813 60.5898L70.5463 89.8158C70.1453 91.4718 69.1853 92.3228 67.6953 92.3488C66.9383 92.3618 66.1343 92.1628 65.0173 91.8878L64.5723 91.7768C62.0463 91.1618 59.4343 90.5258 60.0593 87.4608Z" fill="#A3A9AD"/>
</svg>
