<svg width="384" height="68" viewBox="0 0 384 68" fill="none" xmlns="http://www.w3.org/2000/svg">
<path d="M90.8859 30.4786H138.535C139.963 30.4786 141.121 29.3203 141.121 27.8918V5.31544C141.121 3.88652 139.963 2.7282 138.535 2.7282H90.8859C89.4573 2.7282 88.2994 3.88652 88.2994 5.31544V27.8918C88.2994 29.3203 89.4573 30.4786 90.8859 30.4786ZM94.8204 7.90268H134.656V14.0162H94.8204V7.90268ZM94.8204 19.1903H134.656V25.3042H94.8204V19.1903Z" fill="#001317"/>
<path d="M140.78 35.5437H91.4674C90.6677 35.5437 89.9125 35.914 89.4226 36.5469L84.2631 43.7468L79.1366 50.7723C78.8204 51.2057 79.1298 51.8147 79.6665 51.8147H85.3463C85.799 51.8147 86.2235 51.5986 86.4896 51.2339L93.898 41.0966H104.304L85.7186 66.6661C85.3963 67.1096 85.713 67.7311 86.261 67.7311H91.8753C92.343 67.7311 92.7812 67.5078 93.0559 67.1298L111.98 41.0966H122.605L104.004 66.698C103.691 67.1281 103.999 67.7311 104.53 67.7311H110.254C110.677 67.7311 111.074 67.5284 111.323 67.1863L130.28 41.0966H133.758L136.901 41.1047V52.7339V54.8898V56.8394C136.901 59.2828 134.921 61.2634 132.478 61.2634H127.188C126.765 61.2634 126.369 61.4658 126.12 61.8075L122.611 66.6366C122.28 67.0922 122.606 67.7315 123.169 67.7315H132.477C138.491 67.7315 143.368 62.8547 143.368 56.8381V38.1313C143.367 36.7024 142.209 35.5437 140.78 35.5437Z" fill="#001317"/>
<path d="M224.889 27.3732H159.454C159.062 27.3732 158.743 27.6915 158.743 28.0836V29.7734C158.743 31.8777 160.448 33.5836 162.552 33.5836H179.578L164.032 63.0518C163.65 63.7768 163.511 64.6261 163.738 65.4145C164.128 66.7711 165.349 67.6488 166.69 67.6488H218.944C219.669 67.6488 220.395 67.4416 220.96 66.9868C222.087 66.0793 222.408 64.5825 221.856 63.3402L213.366 46.9843C213.221 46.6564 212.896 46.4451 212.537 46.4451H207.555C206.898 46.4451 206.459 47.1204 206.725 47.7206L214.08 61.5179H171.772L186.509 33.5832H222.091C224.026 33.5832 225.595 32.0142 225.595 30.0784V28.078C225.595 27.6894 225.279 27.3732 224.889 27.3732Z" fill="#001317"/>
<path d="M168.028 12.0368H216.418C218.408 12.0368 220.021 10.4233 220.021 8.43257V6.60179C220.021 6.17368 219.674 5.82675 219.246 5.82675H165.155C164.691 5.82675 164.317 6.20195 164.317 6.6648V8.32554C164.317 10.3748 165.978 12.0368 168.028 12.0368Z" fill="#001317"/>
<path d="M61.7698 3.51373H3.23304C1.4475 3.51373 0 4.96164 0 6.74758V67.1096C0 67.5187 0.332391 67.8511 0.741115 67.8511H5.72537C6.1345 67.8511 6.46689 67.5187 6.46689 67.1096V9.98184H58.5368V15.0747V56.9581C58.5368 59.4016 56.5566 61.3826 54.1139 61.3826H50.5647C50.1491 61.3826 49.7585 61.5813 49.5146 61.9173L45.8458 66.9674C45.5788 67.3349 45.8413 67.8507 46.2957 67.8507H54.1127C60.0287 67.8507 64.8474 63.1063 64.9904 57.2239H65.0037V15.0751V6.74758C65.0029 4.96164 63.5554 3.51373 61.7698 3.51373Z" fill="#001317"/>
<path d="M47.3483 53.7429H53.0478C53.5357 53.7429 53.8407 53.2166 53.5987 52.7933L43.8241 35.6826L53.5987 18.5715C53.8407 18.1487 53.5357 17.622 53.0487 17.622H47.3479C47.1201 17.622 46.9097 17.744 46.797 17.9415L40.2473 29.4056L33.6976 17.9415C33.585 17.744 33.3741 17.622 33.1467 17.622H27.4468C26.9593 17.622 26.654 18.1487 26.8959 18.5715L36.6706 35.6822L26.8959 52.7933C26.654 53.2166 26.9597 53.7429 27.4468 53.7429H33.1467C33.3741 53.7429 33.585 53.6209 33.6976 53.423L40.2473 41.9593L46.797 53.423C46.9109 53.6209 47.1209 53.7429 47.3483 53.7429Z" fill="#001317"/>
<path d="M28.2397 35.9443C28.3556 35.7574 28.3794 35.515 28.2554 35.2973L18.3265 17.9415C18.2138 17.744 18.003 17.622 17.7756 17.622H12.0087C11.5212 17.622 11.2159 18.1487 11.4578 18.5715L21.211 35.6217L11.4037 52.7937C11.1617 53.217 11.4675 53.7433 11.9545 53.7433H17.7211C17.9493 53.7433 18.1593 53.6213 18.272 53.4234L28.2268 35.9948C28.236 35.9779 28.232 35.9609 28.2397 35.9443Z" fill="#001317"/>
<path d="M303.495 24.2686H284.767L291.735 12.0368H295.618C297.677 12.0368 299.347 10.3671 299.347 8.30736V6.55493C299.347 6.15308 299.021 5.82674 298.618 5.82674H274.681L271.772 0.759694C271.501 0.289984 271.001 0 270.459 0H265.334C264.819 0 264.497 0.556543 264.754 1.00283L267.526 5.82715H243.21C242.786 5.82715 242.441 6.17125 242.441 6.59613V8.30776C242.441 10.3675 244.111 12.0372 246.17 12.0372H250.053L257.021 24.269H238.288C237.835 24.269 237.467 24.6361 237.467 25.0897V26.784C237.467 28.8247 239.121 30.479 241.161 30.479H300.71C302.704 30.479 304.319 28.8627 304.319 26.8692V25.0933C304.319 24.6373 303.95 24.2686 303.495 24.2686ZM277.622 24.2686H264.165L257.196 12.0368H284.591L277.622 24.2686Z" fill="#001317"/>
<path d="M293.418 35.5437H284.617H248.368C246.654 35.5437 245.264 36.9342 245.264 38.6491V64.6265C245.264 66.3406 246.654 67.7315 248.368 67.7315H293.418C295.132 67.7315 296.523 66.341 296.523 64.6265V47.0732V38.6491C296.523 36.9346 295.132 35.5437 293.418 35.5437ZM290.056 61.9884H251.757V54.509H290.056V61.9884ZM290.056 47.0732V48.7662H251.757V41.2868H284.618H290.056V47.0732Z" fill="#001317"/>
<path d="M381.244 31.8195V29.9948C381.244 29.6297 380.948 29.3341 380.583 29.3341H354.451V15.9314C354.451 15.5235 354.121 15.1931 353.713 15.1931H351.69C349.643 15.1931 347.984 16.8526 347.984 18.8995V29.3337H326.441L328.603 13.059C346.968 12.1798 365.681 9.95156 373.31 8.97417C375.272 8.72256 376.651 6.91763 376.376 4.95801L376.096 2.96811C376.049 2.62844 375.745 2.38975 375.406 2.4362C371.37 2.98264 347.863 6.07271 325.705 6.97175C324.182 7.03354 322.928 8.19428 322.748 9.70923L319.865 32.0736C319.761 32.9544 320.037 33.8369 320.628 34.5005C321.217 35.1632 322.062 35.5437 322.948 35.5437H347.984V56.843C347.984 59.2873 346.004 61.2683 343.56 61.2683H342.428C341.972 61.2683 341.542 61.4876 341.275 61.8588L337.905 66.5296C337.543 67.0328 337.902 67.736 338.523 67.736H343.56C349.575 67.736 354.451 62.8592 354.451 56.8426V35.5433H377.52C379.577 35.5437 381.244 33.8765 381.244 31.8195Z" fill="#001317"/>
<path d="M337.114 41.2868H332.583C331.336 41.2868 330.177 41.9096 329.497 42.9552C326.381 47.742 322.008 56.3377 317.696 63.192C317.325 63.782 317.734 64.5466 318.432 64.5466H322.551C323.792 64.5466 324.969 63.9335 325.629 62.8822C330.494 55.1249 335.054 46.6681 337.656 42.2731C337.915 41.8341 337.624 41.2868 337.114 41.2868Z" fill="#001317"/>
<path d="M383.139 63.1916C378.828 56.3377 374.455 47.7416 371.338 42.9548C370.657 41.9092 369.5 41.2864 368.252 41.2864H363.72C363.211 41.2864 362.919 41.8337 363.178 42.2723C365.781 46.6673 370.34 55.1245 375.207 62.8814C375.866 63.9327 377.043 64.5458 378.284 64.5458H382.403C383.101 64.5462 383.511 63.782 383.139 63.1916Z" fill="#001317"/>
</svg>
