<svg
    width="25"
    height="25"
    viewBox="0 0 25 25"
    fill="none"
    xmlns="http://www.w3.org/2000/svg"
>
    <rect
        width="25"
        height="24.1667"
        fill="white"
    />
    <path
        d="M14.7454 2.48299C15.2849 2.33265 15.863 2.34021 16.408 2.46127C17.0337 2.605 17.6257 2.88278 18.1353 3.26132C18.3213 3.39797 18.4893 3.56789 18.5747 3.78171C18.707 4.09795 18.6716 4.47603 18.4763 4.76088C18.3059 5.01671 18.0161 5.19489 17.7039 5.23312C17.4544 5.26617 17.1929 5.21495 16.9785 5.0868C16.8577 5.01813 16.7656 4.91216 16.6443 4.84419C16.3189 4.64453 15.9441 4.48736 15.5523 4.49632C15.2764 4.49939 15.0337 4.65563 14.8467 4.83924C14.6716 5.01388 14.5825 5.27136 14.6404 5.5109C14.7749 6.00037 14.9087 6.48984 15.043 6.97931C16.0083 7.02722 16.9732 7.27408 17.803 7.76118C18.6096 8.24357 19.3384 8.85529 19.9163 9.5843C20.4067 10.2022 20.7786 10.9078 21.0061 11.655C21.2525 12.4602 21.3323 13.3094 21.2681 14.1458C21.2146 14.8358 21.0742 15.5219 20.832 16.174C20.2058 17.7618 19.0459 19.154 17.553 20.0562C16.458 20.7248 15.2005 21.1281 13.918 21.282C13.0327 21.3889 12.1306 21.3894 11.2498 21.2435C9.43971 20.9544 7.74342 20.0824 6.45607 18.8229C5.17677 17.5838 4.28639 15.9757 3.92628 14.2602C3.66066 13.0092 3.67262 11.7029 3.9673 10.4575C4.3274 8.92184 5.1233 7.4853 6.2422 6.34139C7.1548 5.4021 8.28199 4.65893 9.5193 4.17914C9.64674 4.13217 9.77223 4.07648 9.90797 4.05571C10.1978 4.00662 10.5073 4.07294 10.7446 4.24191C11.0659 4.46116 11.2427 4.85882 11.1892 5.23501C11.145 5.61899 10.863 5.9652 10.4873 6.09666C9.23732 6.54837 8.12892 7.3555 7.33107 8.38895C6.61793 9.30606 6.1526 10.4016 5.99659 11.5394C5.83912 12.6656 5.97926 13.8286 6.39674 14.8906C6.99977 16.4432 8.19874 17.7793 9.72731 18.5397C10.6477 19.0006 11.6839 19.2413 12.7202 19.2345C13.5728 19.2238 14.428 19.0914 15.2293 18.8049C15.9338 18.5519 16.5942 18.1783 17.1558 17.6941C17.6792 17.2457 18.1148 16.7038 18.447 16.1093C18.6135 15.806 18.7673 15.4938 18.8613 15.1618C19.1387 14.2126 19.1868 13.1838 18.8901 12.2332C18.6448 11.436 18.1399 10.7254 17.4951 10.1795C17.21 9.93831 16.9053 9.71717 16.5786 9.5312C16.2901 9.3745 15.9749 9.26782 15.6533 9.1949C15.8775 10.0421 16.1172 10.8859 16.3445 11.7324C16.3831 11.9354 16.4216 12.1383 16.4578 12.3418C16.491 13.2152 16.1741 14.095 15.5913 14.7631C15.0484 15.3928 14.2774 15.8358 13.4434 15.988C12.5444 16.1612 11.5779 15.9977 10.8059 15.516C10.0689 15.0643 9.52443 14.349 9.23732 13.5572C9.07472 13.1142 8.99366 12.6457 8.97755 12.1766C8.92823 11.1558 9.20436 10.113 9.80836 9.26877C10.5181 8.26127 11.637 7.56861 12.8367 7.23065C12.7483 6.90402 12.658 6.57787 12.5686 6.25124C12.3369 5.5463 12.3862 4.75475 12.7319 4.09205C12.9185 3.72224 13.1958 3.40009 13.5166 3.13223C13.8738 2.83699 14.2908 2.60382 14.7454 2.48299ZM11.8809 10.1613C11.5591 10.488 11.3335 10.901 11.2363 11.3418C11.1489 11.7421 11.1484 12.1593 11.2271 12.5608C11.323 13.0042 11.5598 13.438 11.9524 13.6997C12.2571 13.9088 12.6538 13.9723 13.0173 13.9036C13.69 13.7894 14.2388 13.1911 14.2576 12.5291C14.2319 12.3651 14.2039 12.2011 14.156 12.0416C13.9048 11.123 13.6514 10.2052 13.4016 9.28623C12.8333 9.45568 12.2922 9.74125 11.8809 10.1613Z"
        fill="#D00000"
    />
</svg>