<svg width="13" height="13" viewBox="0 0 13 13" fill="none" xmlns="http://www.w3.org/2000/svg">
<path d="M6.02681 12.1458L5.74746 11.9156L5.74562 11.9141C2.79108 9.48395 0 7.18828 0 3.98229C1.35448e-05 3.17721 0.224908 2.39103 0.645027 1.72744C1.06515 1.06385 1.66076 0.554007 2.35332 0.265151C3.04588 -0.0237043 3.80286 -0.0780092 4.52443 0.109398C5.24601 0.296805 5.8983 0.717123 6.39527 1.31492C6.89225 0.717123 7.54453 0.296805 8.26611 0.109398C8.98769 -0.0780092 9.74467 -0.0237043 10.4372 0.265151C11.1298 0.554007 11.7254 1.06385 12.1455 1.72744C12.5656 2.39103 12.7905 3.17721 12.7905 3.98229C12.7905 7.18894 9.99831 9.4853 7.04309 11.9156L6.76373 12.1458C6.65766 12.2329 6.52828 12.28 6.39527 12.28C6.26226 12.28 6.13289 12.2329 6.02681 12.1458Z" fill="#C74D4D"/>
</svg>
