<svg width="14" height="12" viewBox="0 0 14 12" fill="none" xmlns="http://www.w3.org/2000/svg">
<path d="M1.40385 10.3054V0.701926C1.40385 0.515763 1.3299 0.337226 1.19826 0.205589C1.06663 0.0739527 0.888088 0 0.701926 0C0.515763 0 0.337226 0.0739527 0.205589 0.205589C0.0739527 0.337226 0 0.515763 0 0.701926L0 10.3054C0 10.4916 0.0739527 10.6701 0.205589 10.8017C0.337226 10.9334 0.515763 11.0073 0.701926 11.0073C0.888088 11.0073 1.06663 10.9334 1.19826 10.8017C1.3299 10.6701 1.40385 10.4916 1.40385 10.3054Z" fill="black"/>
<path d="M4.21155 10.3054V0.701926C4.21155 0.515763 4.1376 0.337226 4.00596 0.205589C3.87433 0.0739527 3.69579 0 3.50963 0C3.32346 0 3.14493 0.0739527 3.01329 0.205589C2.88165 0.337226 2.8077 0.515763 2.8077 0.701926V10.3054C2.8077 10.4916 2.88165 10.6701 3.01329 10.8017C3.14493 10.9334 3.32346 11.0073 3.50963 11.0073C3.69579 11.0073 3.87433 10.9334 4.00596 10.8017C4.1376 10.6701 4.21155 10.4916 4.21155 10.3054Z" fill="black"/>
<path d="M6.31733 11.0073C6.50349 11.0073 6.68203 10.9334 6.81366 10.8017C6.9453 10.6701 7.01925 10.4916 7.01925 10.3054V0.701926C7.01925 0.515763 6.9453 0.337226 6.81366 0.205589C6.68203 0.0739527 6.50349 0 6.31733 0C6.13117 0 5.95263 0.0739527 5.82099 0.205589C5.68936 0.337226 5.6154 0.515763 5.6154 0.701926V10.3054C5.6154 10.4916 5.68936 10.6701 5.82099 10.8017C5.95263 10.9334 6.13117 11.0073 6.31733 11.0073Z" fill="black"/>
<path d="M13.1556 9.89714L9.69121 0.619648C9.62605 0.445121 9.49423 0.303625 9.32475 0.226289C9.15527 0.148952 8.96201 0.14211 8.78748 0.207267C8.61295 0.272423 8.47146 0.404242 8.39412 0.573724C8.31678 0.743206 8.30994 0.936469 8.3751 1.111L11.8395 10.3876C11.8718 10.4741 11.9208 10.5533 11.9836 10.6208C12.0465 10.6883 12.1221 10.7427 12.206 10.781C12.2899 10.8193 12.3805 10.8407 12.4727 10.8439C12.5649 10.8472 12.6568 10.8323 12.7433 10.8C12.8297 10.7678 12.9089 10.7188 12.9764 10.6559C13.0439 10.593 13.0983 10.5175 13.1366 10.4336C13.1749 10.3496 13.1963 10.259 13.1996 10.1668C13.2028 10.0746 13.1879 9.98271 13.1556 9.8963V9.89714Z" fill="black"/>
</svg>
