<svg width="30" height="29" viewBox="0 0 30 29" fill="none" xmlns="http://www.w3.org/2000/svg">
<g filter="url(#filter0_d)">
<path d="M18.2096 13.0174L9.79719 8.16052C9.61505 8.05536 9.40845 8 9.19813 8C8.98782 8 8.78121 8.05536 8.59908 8.16051C8.41694 8.26566 8.26569 8.41691 8.16053 8.59904C8.05537 8.78118 8.00001 8.98778 8 9.1981V18.9119C8.00001 19.1222 8.05537 19.3288 8.16053 19.511C8.26569 19.6931 8.41694 19.8443 8.59908 19.9495C8.78121 20.0546 8.98782 20.11 9.19813 20.11C9.40845 20.11 9.61505 20.0546 9.79719 19.9495L18.2096 15.0929C18.3917 14.9877 18.543 14.8365 18.6481 14.6543C18.7532 14.4722 18.8086 14.2656 18.8086 14.0553C18.8086 13.845 18.7532 13.6384 18.6481 13.4563C18.543 13.2741 18.3917 13.1225 18.2096 13.0174Z" fill="black"/>
<path d="M20.445 19.9712C20.6039 19.9712 20.7563 19.9081 20.8686 19.7957C20.981 19.6834 21.0441 19.531 21.0441 19.3721V8.73766C21.0441 8.57878 20.981 8.4264 20.8686 8.31406C20.7563 8.20171 20.6039 8.1386 20.445 8.1386C20.2862 8.1386 20.1338 8.20171 20.0214 8.31406C19.9091 8.4264 19.846 8.57878 19.846 8.73766V19.3721C19.846 19.531 19.9091 19.6834 20.0214 19.7957C20.1338 19.9081 20.2862 19.9712 20.445 19.9712Z" fill="black"/>
</g>
<defs>
<filter id="filter0_d" x="0" y="0" width="29.0441" height="28.11" filterUnits="userSpaceOnUse" color-interpolation-filters="sRGB">
<feFlood flood-opacity="0" result="BackgroundImageFix"/>
<feColorMatrix in="SourceAlpha" type="matrix" values="0 0 0 0 0 0 0 0 0 0 0 0 0 0 0 0 0 0 127 0"/>
<feOffset/>
<feGaussianBlur stdDeviation="4"/>
<feColorMatrix type="matrix" values="0 0 0 0 1 0 0 0 0 1 0 0 0 0 1 0 0 0 0.8 0"/>
<feBlend mode="normal" in2="BackgroundImageFix" result="effect1_dropShadow"/>
<feBlend mode="normal" in="SourceGraphic" in2="effect1_dropShadow" result="shape"/>
</filter>
</defs>
</svg>
