<svg width="14" height="15" viewBox="0 0 14 15" fill="none" xmlns="http://www.w3.org/2000/svg">
<path d="M5.45314 1.33536C6.22761 0.888214 7.18181 0.888214 7.95628 1.33536L11.1578 3.18378C11.9323 3.63093 12.4094 4.45729 12.4094 5.35158V9.04842C12.4094 9.94271 11.9323 10.7691 11.1578 11.2162L7.95628 13.0646C7.18181 13.5118 6.22761 13.5118 5.45314 13.0646L2.25157 11.2162C1.4771 10.7691 1 9.94271 1 9.04842V5.35157C1 4.45729 1.4771 3.63093 2.25157 3.18378L5.45314 1.33536Z" stroke="black" stroke-width="1.3"/>
<path d="M9.99832 7.2C9.99832 9.01902 8.52372 10.4936 6.70471 10.4936C4.8857 10.4936 3.41109 9.01902 3.41109 7.2C3.41109 5.38098 4.8857 3.90638 6.70471 3.90638C8.52372 3.90638 9.99832 5.38098 9.99832 7.2Z" stroke="black" stroke-width="1.3"/>
</svg>
