<svg width="27" height="31" viewBox="0 0 27 31" fill="none" xmlns="http://www.w3.org/2000/svg">
<g filter="url(#filter0_d)">
<path d="M9.67924 8C8.75161 8 8 8.75161 8 9.67924V20.8743C8 21.8019 8.75163 22.5535 9.67924 22.5535C10.6069 22.5535 11.3585 21.8019 11.3585 20.8743V9.67926C11.3585 8.75163 10.6069 8 9.67924 8ZM16.3963 8C15.4687 8 14.717 8.75161 14.717 9.67924V20.8743C14.717 21.8019 15.4687 22.5535 16.3963 22.5535C17.3239 22.5535 18.0755 21.8019 18.0755 20.8743V9.67926C18.0755 8.75163 17.3239 8 16.3963 8Z" fill="black" fill-opacity="0.9"/>
</g>
<defs>
<filter id="filter0_d" x="0" y="0" width="26.0755" height="30.5535" filterUnits="userSpaceOnUse" color-interpolation-filters="sRGB">
<feFlood flood-opacity="0" result="BackgroundImageFix"/>
<feColorMatrix in="SourceAlpha" type="matrix" values="0 0 0 0 0 0 0 0 0 0 0 0 0 0 0 0 0 0 127 0"/>
<feOffset/>
<feGaussianBlur stdDeviation="4"/>
<feColorMatrix type="matrix" values="0 0 0 0 1 0 0 0 0 1 0 0 0 0 1 0 0 0 0.8 0"/>
<feBlend mode="normal" in2="BackgroundImageFix" result="effect1_dropShadow"/>
<feBlend mode="normal" in="SourceGraphic" in2="effect1_dropShadow" result="shape"/>
</filter>
</defs>
</svg>
