<svg width="15" height="17" viewBox="0 0 15 17" fill="none" xmlns="http://www.w3.org/2000/svg">
<path d="M12.6494 1.55186C13.0021 1.55186 13.2842 1.83402 13.2842 2.18671V16.2946C13.2842 16.4004 13.3548 16.4709 13.4606 16.4357C13.9191 16.3651 14.2365 15.9772 14.2365 15.4834V1.69294C14.2365 1.09335 13.7427 0.599579 13.1432 0.599579H1.75104C1.18673 0.599579 0.763489 1.02281 0.763489 1.55186V15.3423C0.763489 15.9419 1.25727 16.4357 1.85685 16.4357H10.4274C10.7096 16.4357 10.9212 16.224 10.9212 15.9419C10.9212 15.6597 10.7096 15.4481 10.4274 15.4481H2.20955C1.92739 15.4481 1.71577 15.2365 1.71577 14.9543V13.8257V3.10373V2.18671C1.71577 1.83402 1.99793 1.55186 2.35063 1.55186H3.47926H12.6494Z" fill="black"/>
<path d="M10.4979 5.89005H4.50207C4.39626 5.89005 4.29045 5.78424 4.29045 5.67843V5.11411C4.29045 5.00831 4.39626 4.9025 4.50207 4.9025H10.4979C10.6037 4.9025 10.7095 5.00831 10.7095 5.11411V5.67843C10.7095 5.81951 10.6037 5.89005 10.4979 5.89005Z" fill="black"/>
<path d="M10.4979 8.99378H4.50207C4.39626 8.99378 4.29045 8.88797 4.29045 8.78216V8.21784C4.29045 8.11203 4.39626 8.00623 4.50207 8.00623H10.4979C10.6037 8.00623 10.7095 8.11203 10.7095 8.21784V8.78216C10.7095 8.88797 10.6037 8.99378 10.4979 8.99378Z" fill="black"/>
<path d="M10.4979 12.0622H4.50207C4.39626 12.0622 4.29045 11.9564 4.29045 11.8506V11.2863C4.29045 11.1805 4.39626 11.0747 4.50207 11.0747H10.4979C10.6037 11.0747 10.7095 11.1805 10.7095 11.2863V11.8506C10.7095 11.9564 10.6037 12.0622 10.4979 12.0622Z" fill="black"/>
</svg>
