<svg width="16" height="14" viewBox="0 0 16 14" fill="none" xmlns="http://www.w3.org/2000/svg">
<path d="M1.984 0.664C2.61333 0.664 3.08 0.792 3.384 1.048C3.69333 1.29867 3.848 1.65867 3.848 2.128V2.32C3.848 2.82133 3.69867 3.208 3.4 3.48C3.10133 3.752 2.65067 3.888 2.048 3.888C1.808 3.888 1.552 3.86667 1.28 3.824V6H0.6V0.704C1.05333 0.677333 1.51467 0.664 1.984 0.664ZM1.968 1.24C1.73333 1.24 1.504 1.24533 1.28 1.256V3.24C1.6 3.28267 1.84533 3.304 2.016 3.304C2.784 3.304 3.168 2.96533 3.168 2.288V2.152C3.168 1.848 3.072 1.62133 2.88 1.472C2.688 1.31733 2.384 1.24 1.968 1.24ZM5.36594 0.76V5.4H7.44594V6H4.68594V0.76H5.36594ZM10.2393 0.76L11.8473 6H11.1113L10.7673 4.784H8.83931L8.49531 6H7.79931L9.39931 0.76H10.2393ZM9.80731 1.384L9.00731 4.176H10.5993L9.80731 1.384ZM15.2537 0.76L13.7337 4.2V6H13.0537V4.2L11.5337 0.76H12.3097L13.3977 3.48L14.4937 0.76H15.2537ZM2.544 8.76L4.152 14H3.416L3.072 12.784H1.144L0.8 14H0.104L1.704 8.76H2.544ZM2.112 9.384L1.312 12.176H2.904L2.112 9.384ZM5.53781 8.76V13.4H7.61781V14H4.85781V8.76H5.53781ZM9.13938 8.76V13.4H11.2194V14H8.45938V8.76H9.13938Z" fill="black"/>
</svg>
