<svg width="13" height="13" viewBox="0 0 13 13" fill="none" xmlns="http://www.w3.org/2000/svg">
<path d="M4.9223 9.8446C6.05762 9.83953 7.15555 9.43828 8.0266 8.7101C8.03969 8.73409 8.05481 8.75691 8.0718 8.7783L11.4585 12.165C11.5527 12.2568 11.6792 12.3078 11.8107 12.307C11.9422 12.3062 12.0681 12.2536 12.1611 12.1606C12.2541 12.0676 12.3067 11.9417 12.3076 11.8102C12.3084 11.6787 12.2574 11.5522 12.1656 11.458L8.7788 8.0716C8.75744 8.05461 8.73466 8.03949 8.7107 8.0264C9.43863 7.15533 9.83967 6.05748 9.8446 4.9223C9.8446 3.94876 9.55591 2.99709 9.01505 2.18762C8.47418 1.37815 7.70542 0.747247 6.80598 0.37469C5.90655 0.00213277 4.91684 -0.0953452 3.96201 0.0945828C3.00718 0.284511 2.13011 0.753314 1.44171 1.44171C0.753314 2.13011 0.284511 3.00718 0.0945828 3.96201C-0.0953452 4.91684 0.00213277 5.90655 0.37469 6.80598C0.747247 7.70542 1.37815 8.47418 2.18762 9.01505C2.99709 9.55591 3.94876 9.8446 4.9223 9.8446ZM4.9223 1.0001C5.69807 1.00008 6.45642 1.23011 7.10145 1.66109C7.74649 2.09207 8.24923 2.70465 8.54612 3.42136C8.843 4.13807 8.92068 4.92672 8.76934 5.68758C8.618 6.44844 8.24444 7.14734 7.69589 7.69589C7.14734 8.24444 6.44844 8.618 5.68758 8.76934C4.92672 8.92068 4.13807 8.843 3.42136 8.54612C2.70465 8.24923 2.09207 7.74649 1.66109 7.10145C1.23011 6.45642 1.00008 5.69807 1.0001 4.9223C1.0001 3.88207 1.41333 2.88444 2.14889 2.14889C2.88444 1.41333 3.88207 1.0001 4.9223 1.0001Z" fill="black"/>
</svg>